<?xml version="1.0" encoding="utf-8"?>
<!-- Svg Vector Icons : http://www.onlinewebfonts.com/icon -->
<!DOCTYPE svg PUBLIC "-//W3C//DTD SVG 1.1//EN" "http://www.w3.org/Graphics/SVG/1.1/DTD/svg11.dtd">
<svg version="1.1" xmlns="http://www.w3.org/2000/svg" x="0px" y="0px" viewBox="0 0 1000 1000"
    enable-background="new 0 0 1000 1000" xml:space="preserve">
<metadata> Svg Vector Icons : http://www.onlinewebfonts.com/icon </metadata>
<g><g transform="translate(0.000000,511.000000) scale(0.100000,-0.100000)"><path d="M8013.1,3487.4c-323.6-88.1-587.8-329.3-781.2-718c-40.2-78.5-128.3-296.8-195.3-488.2c-147.4-404-235.5-597.4-369.5-798.4C6259.3,872,5271.4,213.4,4226-146.6C3726.3-317,3240-431.9,2321-590.8C1130.1-797.5,705-948.8,377.6-1278.1c-149.3-149.4-277.6-367.6-277.6-471c0-44,19.1-80.4,67-128.3l68.9-68.9l147.4,13.4c80.4,5.7,237.4,3.8,348.5-7.7c197.2-19.2,557.2-74.7,572.5-88.1c3.8-3.8-72.7-93.8-170.4-201c-248.9-271.9-291-390.6-212.5-564.8c91.9-201,476.7-352.3,898-352.3c438.5,0,798.4,176.1,1001.4,490.1l82.3,126.4l88.1-11.5c574.4-78.5,1079.8-107.2,1937.6-107.2h689.3l157-147.4c289.1-273.8,494-400.1,754.3-467.2c317.8-80.4,785-17.2,997.5,135.9c155.1,113,197.2,302.5,109.1,492.1c-26.8,53.6-122.5,208.7-214.4,344.6c-342.7,503.5-463.3,892.2-350.4,1135.4c23,47.9,111.1,258.5,199.1,471C7542.1-26,7724,291.9,7986.3,571.4l132.1,139.8l55.5-34.5c335.1-214.4,750.5-239.3,1114.3-70.8c170.4,80.4,270,166.6,379.1,331.2c321.7,480.6,308.3,1221.5-30.6,1742.3C9246.1,3276.8,8537.7,3629.1,8013.1,3487.4z M8524.3,2223.7c74.7-38.3,122.5-132.1,107.2-208.7c-32.5-160.8-224-222.1-338.9-109.1c-44.1,45.9-55.5,72.8-55.5,139.8C8239,2208.4,8380.7,2298.4,8524.3,2223.7z"/><path d="M3536.7,3267.2c-392.5-44-817.5-174.2-1225.4-373.3c-920.9-448-1506.8-1154.5-1727-2077.4c-93.8-396.3-76.6-1041.5,32.6-1219.6c51.7-86.2,147.4-113,264.2-74.7c202.9,65.1,515,132.1,1079.8,233.6C3010.2-58.5,3477.4,50.6,4009.7,234.4c802.2,277.6,1661.9,781.2,2184.6,1273.2c105.3,101.5,109.1,109.1,109.1,202.9c0,91.9-7.7,109.1-113,241.2C5610.3,2683.2,5018.7,3085.3,4316,3227C4093.9,3272.9,3747.3,3290.2,3536.7,3267.2z"/></g></g>
</svg>